<!DOCTYPE svg PUBLIC "-//W3C//DTD SVG 1.1//EN" "http://www.w3.org/Graphics/SVG/1.1/DTD/svg11.dtd">
<!-- Uploaded to: SVG Repo, www.svgrepo.com, Transformed by: SVG Repo Mixer Tools -->
<svg width="64px" height="64px" viewBox="0 0 1024.00 1024.00" class="icon" version="1.1" xmlns="http://www.w3.org/2000/svg" fill="#000000" transform="rotate(0)matrix(1, 0, 0, 1, 0, 0)" stroke="#000000" stroke-width="0.01024">
<g id="SVGRepo_bgCarrier" stroke-width="0"/>
<g id="SVGRepo_tracerCarrier" stroke-linecap="round" stroke-linejoin="round" stroke="#CCCCCC" stroke-width="4.096"/>
<g id="SVGRepo_iconCarrier">
<path d="M784.8 510.1L896.9 316c4.4-7.7 4.4-17.2 0-24.9-4.4-7.7-12.7-12.4-21.6-12.4H651.2L533.6 75.2c-4.4-7.7-12.7-12.4-21.6-12.4-8.9 0-17.1 4.7-21.6 12.4L372.8 278.7H148.6c-8.9 0-17.1 4.7-21.6 12.4-4.4 7.7-4.4 17.2 0 24.9l112.1 194.1-112 194.1c-4.4 7.7-4.4 17.2 0 24.9 4.4 7.7 12.7 12.4 21.6 12.4h224.2l117.6 203.6c4.4 7.7 12.7 12.4 21.6 12.4 8.9 0 17.1-4.7 21.6-12.4l117.6-203.6h224.2c8.9 0 17.1-4.7 21.6-12.4 4.4-7.7 4.4-17.2 0-24.9L784.8 510.1z m47.5-181.6l-76.2 131.9-76.2-131.9h152.4z m-105 181.6L622.4 691.7H401.6L296.7 510.1l104.9-181.6h220.8l104.9 181.6zM512 137.4l81.7 141.4H430.3L512 137.4zM191.7 328.5h152.4l-76.2 131.9-76.2-131.9z m0 363.2l76.2-131.9 76.2 131.9H191.7zM512 882.9l-81.7-141.4h163.3L512 882.9z m167.9-191.2l76.2-131.9 76.2 131.9H679.9z" fill="#FEA200"/>
</g>
</svg>