<!DOCTYPE svg PUBLIC "-//W3C//DTD SVG 1.1//EN" "http://www.w3.org/Graphics/SVG/1.1/DTD/svg11.dtd">
<!-- Uploaded to: SVG Repo, www.svgrepo.com, Transformed by: SVG Repo Mixer Tools -->
<svg height="64px" width="64px" version="1.1" id="Layer_1" xmlns="http://www.w3.org/2000/svg" xmlns:xlink="http://www.w3.org/1999/xlink" viewBox="0 0 512.001 512.001" xml:space="preserve" fill="#000000">
<g id="SVGRepo_bgCarrier" stroke-width="0"/>
<g id="SVGRepo_tracerCarrier" stroke-linecap="round" stroke-linejoin="round"/>
<g id="SVGRepo_iconCarrier"> <g> <path style="fill:#ED589C;" d="M380.811,261.696c-19.414,47.547-55.605,83.185-98.941,102.88 c-8.286,3.765-18.096-0.239-21.378-8.728c-17.166-44.398-18.073-95.182,1.341-142.729s55.605-83.185,98.941-102.88 c8.286-3.765,18.096,0.239,21.378,8.728C399.318,163.365,400.224,214.149,380.811,261.696z"/> <path style="fill:#ED589C;" d="M396.82,400.616c-47.993,18.283-98.742,16.175-142.722-2.037 c-8.409-3.482-12.181-13.384-8.22-21.579c20.715-42.856,57.2-78.195,105.193-96.478s98.742-16.175,142.722,2.037 c8.409,3.482,12.181,13.384,8.22,21.579C481.298,346.996,444.815,382.334,396.82,400.616z"/> </g> <g> <path style="fill:#EA4296;" d="M448.157,269.923c-31.697-4.72-65.006-1.622-97.086,10.599 c-47.994,18.283-84.478,53.621-105.193,96.478c-3.961,8.195-0.189,18.096,8.22,21.579c12.195,5.05,24.911,8.856,37.943,11.338 c37.931-10.838,73.717-31.18,103.59-61.054C418.941,325.555,436.438,298.642,448.157,269.923z"/> <path style="fill:#EA4296;" d="M326.03,130.617c-27.67,20.367-50.258,48.364-64.197,82.501 c-19.414,47.547-18.507,98.331-1.341,142.729c3.283,8.489,13.092,12.495,21.378,8.729c15.941-7.245,30.909-16.654,44.438-28.012 c12.929-31.67,20.062-66.322,20.062-102.642C346.369,197.345,339.131,162.465,326.03,130.617z"/> </g> <path style="fill:#F1709F;" d="M384.62,337.851c-36.316,36.316-83.486,55.151-131.067,56.524c-9.098,0.263-16.59-7.23-16.328-16.328 c1.372-47.581,20.208-94.752,56.524-131.067c36.316-36.316,83.486-55.151,131.067-56.524c9.098-0.263,16.59,7.23,16.328,16.327 C439.771,254.365,420.936,301.535,384.62,337.851z"/> <g> <path style="fill:#ED589C;" d="M237.224,378.046c-0.263,9.098,7.23,16.59,16.327,16.328c15.198-0.438,30.353-2.667,45.126-6.67 c30.073-43.734,47.69-96.696,47.69-153.784c0-8.039-0.368-15.989-1.052-23.851c-18.622,9.13-36.084,21.425-51.568,36.909 C257.432,283.295,238.597,330.465,237.224,378.046z"/> <path style="fill:#ED589C;" d="M131.278,261.696c19.414,47.547,55.605,83.185,98.941,102.88c8.286,3.765,18.096-0.239,21.378-8.728 c17.166-44.398,18.073-95.182-1.341-142.729s-55.605-83.185-98.941-102.88c-8.286-3.765-18.096,0.239-21.378,8.728 C112.771,163.365,111.865,214.149,131.278,261.696z"/> <path style="fill:#ED589C;" d="M115.267,400.616c47.993,18.283,98.742,16.175,142.722-2.037c8.409-3.482,12.181-13.384,8.22-21.579 c-20.715-42.856-57.2-78.195-105.193-96.478s-98.742-16.175-142.722,2.037c-8.409,3.482-12.181,13.384-8.22,21.579 C30.791,346.996,67.274,382.334,115.267,400.616z"/> </g> <g> <path style="fill:#EA4296;" d="M63.931,269.923c31.697-4.72,65.006-1.622,97.086,10.599 c47.994,18.283,84.478,53.621,105.193,96.478c3.961,8.195,0.189,18.096-8.22,21.579c-12.195,5.05-24.911,8.856-37.943,11.338 c-37.931-10.838-73.717-31.18-103.59-61.054C93.147,325.555,75.651,298.642,63.931,269.923z"/> <path style="fill:#EA4296;" d="M186.059,130.617c27.67,20.367,50.258,48.364,64.197,82.501 c19.414,47.547,18.507,98.331,1.341,142.729c-3.283,8.489-13.092,12.495-21.378,8.729c-15.941-7.245-30.909-16.654-44.438-28.012 c-12.929-31.67-20.062-66.322-20.062-102.642C165.72,197.345,172.957,162.465,186.059,130.617z"/> </g> <path style="fill:#F1709F;" d="M127.469,337.851c36.316,36.316,83.486,55.151,131.067,56.524c9.098,0.263,16.59-7.23,16.327-16.328 c-1.372-47.581-20.208-94.752-56.524-131.067s-83.486-55.151-131.067-56.524c-9.098-0.263-16.59,7.23-16.327,16.327 C72.318,254.365,91.153,301.535,127.469,337.851z"/> <path style="fill:#ED589C;" d="M274.863,378.046c0.263,9.098-7.23,16.59-16.327,16.328c-15.198-0.438-30.353-2.667-45.126-6.67 c-30.073-43.734-47.69-96.696-47.69-153.784c0-8.039,0.368-15.989,1.052-23.851c18.622,9.13,36.084,21.425,51.568,36.909 C254.656,283.295,273.492,330.465,274.863,378.046z"/> <path style="fill:#FFA0C4;" d="M181.106,233.921c0,59.871,23.356,114.28,61.448,154.633c7.284,7.716,19.636,7.716,26.919,0 c38.091-40.352,61.448-94.762,61.448-154.633s-23.356-114.28-61.448-154.633c-7.283-7.716-19.636-7.716-26.919,0 C204.463,119.639,181.106,174.049,181.106,233.921z"/> <path style="fill:#42A555;" d="M469.019,438.498H42.91c-12.207,0-22.103-9.896-22.103-22.103l0,0 c0-12.207,9.896-22.103,22.103-22.103h426.11c12.207,0,22.103,9.896,22.103,22.103l0,0 C491.123,428.602,481.227,438.498,469.019,438.498z"/> <path style="fill:#427451;" d="M469.019,394.29h-35.563c12.207,0,22.103,9.896,22.103,22.103s-9.896,22.103-22.103,22.103h35.563 c12.207,0,22.103-9.896,22.103-22.103S481.227,394.29,469.019,394.29z"/> <path d="M456.16,353.066c-3.351,3.225-3.453,8.557-0.228,11.908c1.654,1.718,3.861,2.582,6.07,2.582c2.101,0,4.206-0.782,5.84-2.354 c17.245-16.597,31.293-35.987,41.754-57.629c2.893-5.983,3.19-12.989,0.818-19.219c-2.373-6.232-7.256-11.264-13.398-13.806 c-18.049-7.475-36.902-12.254-56.183-14.277c5.269-17.242,8.207-35.102,8.73-53.245c0.191-6.644-2.403-13.157-7.118-17.872 c-4.716-4.716-11.244-7.314-17.873-7.118c-7.047,0.203-14.06,0.794-21.014,1.726c-0.559-23.204-5.102-45.98-13.551-67.833 c-2.397-6.2-7.312-11.201-13.485-13.721c-6.172-2.519-13.183-2.389-19.234,0.362c-6.148,2.794-12.224,5.932-18.057,9.324 c-4.022,2.339-5.385,7.494-3.047,11.515c2.338,4.022,7.493,5.384,11.515,3.047c5.35-3.112,10.921-5.988,16.559-8.551 c1.877-0.851,3.968-0.888,5.896-0.101c1.927,0.787,3.397,2.279,4.142,4.2c8.055,20.836,12.231,42.584,12.459,64.731 c-17.118,3.785-33.696,9.771-49.254,17.84c-6.141-48.974-27.576-94.703-61.903-131.068c-5.056-5.357-12.194-8.428-19.584-8.428 c-7.391,0-14.53,3.071-19.584,8.428c-15.751,16.687-28.779,35.35-38.873,55.388c-13.099-10.504-27.464-19.337-42.836-26.323 c-6.052-2.75-13.063-2.882-19.234-0.362c-6.173,2.52-11.089,7.521-13.485,13.721c-8.451,21.856-12.993,44.635-13.551,67.844 c-6.978-0.938-14.016-1.533-21.088-1.736c-6.628-0.194-13.158,2.402-17.873,7.118c-4.714,4.714-7.309,11.229-7.118,17.873 c0.527,18.266,3.498,36.143,8.72,53.243c-19.253,2.027-38.079,6.804-56.105,14.268c-6.142,2.543-11.024,7.575-13.398,13.805 c-2.374,6.23-2.076,13.236,0.816,19.22c15.253,31.554,38.578,58.576,67.17,78.304H42.91c-16.832,0-30.527,13.694-30.527,30.526 c0,16.833,13.694,30.527,30.527,30.527h426.11c16.832,0,30.527-13.694,30.527-30.527c0-16.832-13.694-30.526-30.527-30.526H329.15 c22.664-9.966,43.494-24.131,61.427-42.062c19.408-19.408,34.344-41.979,44.471-67.16c19.072,1.58,37.722,6.093,55.523,13.465 c1.904,0.788,3.36,2.293,4.1,4.239c0.741,1.945,0.656,4.037-0.241,5.892C484.84,320.084,471.966,337.855,456.16,353.066z M248.678,85.068c1.915-2.028,4.519-3.146,7.334-3.146s5.42,1.117,7.334,3.146c34.444,36.489,54.908,83.136,58.554,132.767 c-0.033,0.627,0.013,1.26,0.125,1.887c0.304,4.709,0.471,9.442,0.471,14.197c0,55.58-21.006,108.444-59.149,148.852 c-1.542,1.633-3.534,2.663-5.72,3.007c-0.728,0.038-1.458,0.06-2.185,0.089h-0.421c-2.431-0.231-4.655-1.308-6.342-3.096 c-38.143-40.407-59.149-93.271-59.149-148.851S210.536,125.477,248.678,85.068z M137.712,122.004c0.743-1.921,2.215-3.413,4.142-4.2 c1.928-0.786,4.02-0.75,5.896,0.101c15.394,6.998,29.678,16.025,42.555,26.849c-7.87,19.069-13.194,39.175-15.784,59.863 c-15.56-8.079-32.144-14.076-49.267-17.868C125.48,164.597,129.654,142.844,137.712,122.004z M17.572,300.233 c-0.896-1.854-0.982-3.947-0.241-5.892c0.741-1.945,2.198-3.45,4.1-4.238c17.775-7.36,36.396-11.871,55.436-13.458 c10.032,24.892,25.056,47.728,44.49,67.162c7.511,7.511,15.645,14.464,24.174,20.668c1.496,1.087,3.229,1.612,4.947,1.612 c2.602,0,5.17-1.203,6.818-3.469c2.737-3.762,1.904-9.03-1.857-11.766c-7.821-5.686-15.279-12.065-22.169-18.954 c-18.949-18.949-33.318-41.426-42.476-65.943c-0.158-0.699-0.4-1.361-0.719-1.98c-6.577-18.247-10.295-37.588-10.866-57.431 c-0.06-2.058,0.719-4.004,2.19-5.476c1.471-1.472,3.386-2.256,5.477-2.191c30.279,0.873,59.921,9.185,86.064,24.068 c-0.17,3.646-0.257,7.306-0.257,10.977c0,56.09,19.853,109.611,56.132,151.948H102.867 C65.829,367.824,35.571,337.471,17.572,300.233z M482.701,416.395c0,7.543-6.137,13.682-13.682,13.682H42.91 c-7.544,0-13.682-6.137-13.682-13.682s6.137-13.681,13.682-13.681h209.52c0.367,0.049,0.739,0.083,1.12,0.083 c0.082,0,0.164-0.001,0.247-0.003c0.442-0.012,0.883-0.038,1.324-0.054c0.298,0.01,0.595,0.024,0.894,0.024 c0.521,0,1.04-0.019,1.556-0.049H469.02C476.563,402.713,482.701,408.85,482.701,416.395z M378.663,331.895 c-25.54,25.54-57.49,42.755-92.211,50.104c34.216-41.706,52.888-93.684,52.888-148.078c0-3.689-0.088-7.366-0.258-11.03 c26.12-14.851,55.728-23.144,85.973-24.016c2.054-0.069,4.004,0.718,5.477,2.191c1.472,1.472,2.249,3.416,2.19,5.475 c-0.568,19.666-4.225,38.965-10.856,57.389c-0.321,0.62-0.567,1.284-0.728,1.984C411.87,290.772,397.589,312.971,378.663,331.895z"/> <path d="M216.646,242.343c4.653,0,8.423-3.771,8.423-8.423c0-29.706,6.626-58.169,19.694-84.598 c2.062-4.17,0.353-9.221-3.816-11.283c-4.171-2.063-9.221-0.353-11.283,3.817c-14.227,28.77-21.441,59.744-21.441,92.064 C208.224,238.572,211.994,242.343,216.646,242.343z"/> </g>
</svg>